<svg width="30" height="24" viewBox="0 0 30 24" fill="none" xmlns="http://www.w3.org/2000/svg">
<path d="M9.7519 23.5C20.4279 23.5 26.2662 14.6521 26.2662 6.97956C26.2662 6.72829 26.2611 6.47816 26.2497 6.22907C27.3857 5.40677 28.3662 4.38864 29.145 3.2224C28.105 3.68493 26.9859 3.99623 25.8118 4.13659C27.0102 3.41778 27.9301 2.2806 28.3642 0.925098C27.2248 1.60124 25.9784 2.07788 24.6786 2.33448C23.6194 1.20587 22.1115 0.5 20.4418 0.5C17.2366 0.5 14.6373 3.10026 14.6373 6.30549C14.6373 6.76117 14.6883 7.20427 14.7879 7.62943C9.96396 7.3866 5.68642 5.07614 2.82367 1.56295C2.30806 2.44904 2.03685 3.45611 2.03776 4.4813C2.03776 6.49576 3.06241 8.27406 4.62066 9.31446C3.69893 9.2863 2.79744 9.03725 1.99199 8.58824C1.99112 8.61262 1.99112 8.63636 1.99112 8.66241C1.99112 11.4743 3.99178 13.8221 6.64759 14.3541C6.14879 14.49 5.63409 14.5587 5.11711 14.5584C4.74376 14.5584 4.3799 14.5217 4.02628 14.4538C4.76521 16.7608 6.90789 18.4396 9.4483 18.4865C7.46173 20.0441 4.95927 20.9719 2.23947 20.9719C1.77679 20.9723 1.3145 20.9454 0.85498 20.8915C3.42374 22.5385 6.47388 23.4996 9.75218 23.4996" fill="#1D9BF0"/>
</svg>
